<svg width="0" height="0" class="hidden">
  <symbol xmlns="http://www.w3.org/2000/svg" viewBox="0 0 800 600" id="Car">
    <g>
      <title>Layer 1</title>
      <g stroke-width="0" id="svg_4"></g>
      <g stroke-linejoin="round" stroke-linecap="round" id="svg_3"></g>
      <g stroke="null" id="svg_6">
        <path stroke="null" id="svg_5" d="m17.79631,479.0626l22.25358,0c5.49629,-33.23294 15.28608,-78.68169 30.83615,-102.77273c72.70343,-112.76248 163.98981,-173.28986 278.73701,-173.28986c74.35261,0 122.77954,8.69491 147.99482,26.57252c3.40366,2.41762 13.44113,9.52325 40.55327,74.73687c39.57889,0.7432 144.27082,9.33169 194.47151,77.00549c25.19749,33.95486 35.21716,70.4515 39.08206,97.72642l10.49722,0c9.27665,0 16.77806,8.9929 16.77806,20.08415c0,11.06996 -7.50141,20.08415 -16.77509,20.08415l-8.3868,0c-0.07119,1.08199 -0.14238,1.90855 -0.16017,2.1622c-0.88688,10.17954 -8.10354,17.94146 -16.66831,17.94146l-21.13682,0c-12.97989,35.4182 -42.505,60.27373 -76.86939,60.27373s-63.8895,-24.85553 -76.90499,-60.27373l-320.31805,0c-12.9621,35.4182 -42.505,60.27373 -76.87087,60.27373c-34.36587,0 -63.90729,-24.85553 -76.87087,-60.27373l-56.60165,0c-0.12458,0 -0.22988,0 -0.31886,0c-9.27368,0 -16.81068,-8.9929 -16.81068,-20.08415l-16.50814,0c-9.25589,0 -16.75729,-9.01241 -16.75729,-20.08415c-0.00297,-11.11076 7.49844,-20.08237 16.75433,-20.08237zm641.2056,80.3561c27.76914,0 50.37718,-27.01773 50.37718,-60.27373c0,-33.25423 -22.59024,-60.29324 -50.37718,-60.29324c-27.80474,0 -50.43057,27.04079 -50.43057,60.29324c-0.00148,33.256 22.62583,60.27373 50.43057,60.27373zm-297.78121,-233.66646c0,5.55715 3.7418,10.05183 8.4046,10.05183l130.45743,0c2.87272,0 5.54968,-1.80213 7.09356,-4.72881c1.5602,-2.94797 1.70257,-6.61785 0.42564,-9.71304c-6.15329,-15.14249 -17.30751,-41.37622 -22.64511,-46.82695c-17.76875,-13.50886 -53.39227,-19.91387 -106.78455,-19.91387c-2.90832,0 -5.81663,0.04257 -8.75906,0.10642c-4.5397,0.12771 -8.17472,4.60288 -8.17472,10.05183l-0.0178,60.97259l0,0zm-16.82848,0l0,-58.13104c0,-2.86283 -1.04557,-5.59972 -2.81933,-7.50828c-1.79156,-1.90855 -4.16745,-2.86283 -6.56113,-2.48147c-59.11992,8.31356 -104.58514,31.70575 -121.69838,62.56364c-1.72037,3.09696 -1.84495,7.04178 -0.39005,10.30725c1.43562,3.26547 4.30834,5.30173 7.41242,5.30173l115.68598,0c4.59309,0 8.37049,-4.49645 8.37049,-10.05183zm-159.48571,233.66646c27.76914,0 50.39497,-27.01773 50.39497,-60.27373c0,-33.25423 -22.60803,-60.29324 -50.39497,-60.29324c-27.78694,0 -50.39497,27.04079 -50.39497,60.29324c0,33.256 22.62583,60.27373 50.39497,60.27373z"></path>
      </g>
    </g>
  </symbol>
</svg>